<?xml version="1.0" encoding="utf-8"?>
<!-- Generator: Adobe Illustrator 25.3.1, SVG Export Plug-In . SVG Version: 6.00 Build 0)  -->
<svg version="1.1" id="Layer_1" xmlns="http://www.w3.org/2000/svg" xmlns:xlink="http://www.w3.org/1999/xlink" x="0px" y="0px"
	 viewBox="0 0 1080 245.6" style="enable-background:new 0 0 1080 245.6;" xml:space="preserve">
<style type="text/css">
	.st0{fill:#1F2122;}
	.st1{fill:#FFFFFF;}
</style>
<path class="st0" d="M120.2,37.8H79.8v142.6H50.3V37.8H10V10h110.2V37.8z"/>
<path class="st0" d="M224.4,128.8h-91.9c0.7,14.9,12,27.8,33.4,27.8c15.4,0,25.2-8.2,30-16.6l25.9,2.9
	c-3.6,16.6-22.6,39.8-56.2,39.8c-37.4,0-62.6-28.3-62.6-63.8c0-33.8,24-62.4,60.7-62.4c37.4,0,60.7,29.8,60.7,64.6V128.8z
	 M132.5,108.4h62.4c-1-13.4-12.7-25.7-31.2-25.7C145.7,82.7,133.3,94.5,132.5,108.4z"/>
<path class="st0" d="M429.9,104.1v76.3h-29.5v-66.2c0-17.8-7.4-29.8-21.6-29.8c-17.5,0-28.1,18.7-28.8,43.7v52.3h-29.5v-66.2
	c0-17.8-7.4-29.8-21.6-29.8c-17.5,0-28.1,18.7-29,43.7v52.3h-29.5V59h27.8l1.4,17c10.6-11.3,24.2-19.4,40.6-19.4
	c17.8,0,29.8,9.1,35.5,23.8c11.3-13.4,26.2-23.8,44.6-23.8C416.2,56.6,429.9,76.2,429.9,104.1z"/>
<path class="st0" d="M450.3,59h27.8l1.7,24c6.5-15.4,24.2-26.4,45.1-26.4c34.8,0,58.8,28.3,58.8,63.1c0,34.8-24,63.1-58.8,63.1
	c-20.9,0-38.6-11-45.1-26.6v79.4h-29.5V59z M518.5,155c20.6,0,35.5-16.1,35.5-35.3s-14.9-35.3-35.5-35.3
	c-20.9,0-35.3,16.1-35.3,35.3S497.6,155,518.5,155z"/>
<path class="st0" d="M717.9,108.6v71.8h-29.5v-58.1c0-28.3-10.3-37.9-26.6-37.9c-20.6,0-32.9,15.6-33.6,35.3v60.7h-29.5V59h27.8
	l1.4,18c11.8-11.8,27.1-20.4,45.4-20.4C702.6,56.6,717.9,75.5,717.9,108.6z"/>
<path class="st0" d="M731.1,119.7c0-34.8,27.1-63.1,65.3-63.1c37.9,0,64.8,28.3,64.8,63.1c0,34.8-26.9,63.1-64.8,63.1
	C758.2,182.8,731.1,154.5,731.1,119.7z"/>
<path class="st0" d="M944.2,86.8h-26.9v93.6h-29.5V86.8h-19V59h19V23h29.5v36h26.9V86.8z"/>
<path class="st0" d="M1070,128.8h-91.9c0.7,14.9,12,27.8,33.4,27.8c15.4,0,25.2-8.2,30-16.6l25.9,2.9c-3.6,16.6-22.6,39.8-56.2,39.8
	c-37.4,0-62.6-28.3-62.6-63.8c0-33.8,24-62.4,60.7-62.4c37.4,0,60.7,29.8,60.7,64.6V128.8z M978.1,108.4h62.4
	c-1-13.4-12.7-25.7-31.2-25.7C991.3,82.7,978.8,94.5,978.1,108.4z"/>
<g>
	<path class="st1" d="M828.9,98.3h-64.5c-2.2,0-4-1.8-4-4c0-2.2,1.8-4,4-4h64.5c2.2,0,4,1.8,4,4C832.9,96.5,831.2,98.3,828.9,98.3z"
		/>
	<path class="st1" d="M828.9,122.5h-64.5c-2.2,0-4-1.8-4-4c0-2.2,1.8-4,4-4h64.5c2.2,0,4,1.8,4,4
		C832.9,120.7,831.2,122.5,828.9,122.5z"/>
	<path class="st1" d="M796.7,146.6h-32.3c-2.2,0-4-1.8-4-4c0-2.2,1.8-4,4-4h32.3c2.2,0,4,1.8,4,4
		C800.7,144.8,798.9,146.6,796.7,146.6z"/>
</g>
</svg>
